<?xml version="1.0" standalone="no"?>
<!DOCTYPE svg PUBLIC "-//W3C//DTD SVG 20010904//EN"
 "http://www.w3.org/TR/2001/REC-SVG-20010904/DTD/svg10.dtd">
<svg version="1.0" xmlns="http://www.w3.org/2000/svg"
 width="1329.000000pt" height="1329.000000pt" viewBox="0 0 1329.000000 1329.000000"
 preserveAspectRatio="xMidYMid meet">
<metadata>
Created by potrace 1.11, written by Peter Selinger 2001-2013
</metadata>
<g transform="translate(0.000000,1329.000000) scale(0.100000,-0.100000)"
fill="#000000" stroke="none">
<path d="M1618 13283 c7 -3 16 -2 19 1 4 3 -2 6 -13 5 -11 0 -14 -3 -6 -6z"/>
<path d="M1654 13282 c3 -5 -23 -17 -57 -26 -101 -28 -344 -125 -460 -183
-262 -131 -514 -330 -684 -539 -208 -256 -353 -592 -408 -949 -10 -61 -21
-118 -26 -127 -10 -21 -13 -9575 -2 -9565 3 4 19 -53 33 -127 152 -751 573
-1327 1175 -1603 99 -46 259 -101 373 -129 39 -10 72 -22 72 -26 0 -4 2219 -8
4931 -8 4492 0 4935 1 4982 16 536 165 836 331 1127 625 274 275 423 555 515
964 58 259 55 -33 55 5193 0 2641 -4 4802 -8 4802 -4 0 -9 12 -10 28 -3 44
-32 191 -52 268 -87 335 -203 575 -378 784 -243 289 -473 440 -875 571 l-119
39 -5095 0 c-2802 0 -5092 -4 -5089 -8z"/>
</g>
</svg>
